<?xml version="1.0" encoding="UTF-8"?>
<svg id="Layer_2" xmlns="http://www.w3.org/2000/svg" xmlns:xlink="http://www.w3.org/1999/xlink" viewBox="0 0 264.13 64.61">
  <defs>
    <style>
      .cls-1 {
        fill: url(#linear-gradient);
      }

      .cls-2 {
        fill: #ffd104;
      }
    </style>
    <linearGradient id="linear-gradient" x1="82.54" y1="780.45" x2="142.15" y2="761.25" gradientTransform="translate(0 -740.43)" gradientUnits="userSpaceOnUse">
      <stop offset=".54" stop-color="#ffd104"/>
      <stop offset=".98" stop-color="#ddd" stop-opacity="0"/>
    </linearGradient>
  </defs>
  <g id="Layer_2-2" data-name="Layer_2">
    <g id="Layer_2-2">
      <g>
        <path class="cls-2" d="M188.69,24.52c-2.3,0-4.6-.1-6.89.04-1.26.08-1.55-.47-1.73-1.5-.49-2.73-1.86-4.89-4.28-6.38-4.27-2.63-12-2.21-15.76,2.95-2.08,2.85-2.86,6.1-3.23,9.54-.42,3.84-.13,7.6.94,11.29,2.11,7.29,8.42,9.98,15.06,8.53,3.9-.85,6.38-3.25,7.28-7.16.19-.84.53-1.16,1.45-1.15,4.79.05,9.59.02,14.38.02,1.39,0,1.56.16,1.3,1.53-.76,4.08-2.23,7.85-4.83,11.14-4.75,6.01-10.95,9.39-18.56,10.24-6.64.74-13.11.17-19.13-2.95-7.73-4-12.27-10.45-14.31-18.82-1.08-4.43-1.17-8.92-.87-13.39.53-7.75,3.18-14.71,8.92-20.2,3.87-3.7,8.53-6.02,13.78-6.99,7.66-1.4,15.15-.94,22.17,2.75,6.89,3.62,10.93,9.37,12.41,16.95.08.43.17.86.23,1.3.2,1.51-.48,2.26-2.04,2.26h-6.29Z"/>
        <path class="cls-2" d="M264.13,44.35c-1.4,3.46-3.28,6.52-5.72,9.22-4.73,5.26-10.5,8.82-17.48,10.25-9.97,2.04-19.13.13-27.17-6.14-6.77-5.27-10.95-12.19-12.18-20.74-1.54-10.73,1.46-20.03,9.03-27.84,4.55-4.69,10.06-7.64,16.44-9.04,1.12-.24.86.24.63.81-1.43,3.58-2.05,7.35-2.06,11.16,0,4.34.8,8.59,2.54,12.63,1.73,4.03,4.09,7.65,7.23,10.7,5.23,5.08,11.51,8.12,18.74,9.13,3.11.43,6.25.46,9.35-.18.18-.04.38.02.65.03h0Z"/>
        <path class="cls-1" d="M81.53,1.52h11.63c.67,0,1.3.33,1.68.89l20.51,30.33c.37.54,1.21.28,1.21-.37V2.87c0-.74.61-1.35,1.35-1.35h14.21c.69,0,1.25.56,1.25,1.25l-.03,58.86c0,.7-.57,1.27-1.27,1.27h-11.64c-.73,0-1.41-.36-1.82-.96l-20.48-29.76c-.4-.59-1.32-.3-1.33.41l-.23,29.26c0,.58-.48,1.05-1.06,1.05h-14.29c-.59,0-1.06-.47-1.06-1.06l-.14-58.8c0-.84.68-1.52,1.52-1.52h0Z"/>
        <path class="cls-2" d="M58.53,1.34h14.38c.7,0,1.27.57,1.27,1.27v59.11c0,.75-.61,1.36-1.36,1.36h-14.05c-.73,0-1.32-.58-1.32-1.31l-.26-59.08c0-.74.6-1.35,1.34-1.35Z"/>
        <path class="cls-2" d="M2.16,1.56h47.31c.91,0,1.65.73,1.65,1.64v6.6c0,.35-.11.7-.32.98l-27.73,37.31c-.53.71-.02,1.71.86,1.71l25.28-.05c.91,0,1.65.74,1.65,1.65v10.27c0,.91-.74,1.65-1.65,1.65l-47.57-.04c-.91,0-1.64-.74-1.64-1.65v-8.85c0-.37.12-.73.35-1.02L28.26,16.25c.46-.58.04-1.43-.7-1.43l-25.38.25c-.92,0-1.66-.73-1.66-1.65V3.18c0-.91.74-1.65,1.65-1.65v.03h-.01Z"/>
      </g>
    </g>
  </g>
</svg>